<svg version="1.1" id="Layer_1" xmlns="http://www.w3.org/2000/svg" xmlns:xlink="http://www.w3.org/1999/xlink" x="0px" y="0px" viewBox="0 0 30 30" style="enable-background:new 0 0 511.999 511.999;" xml:space="preserve" width="30" height="30"><path style="fill:#01A7ED;" d="M23.093 6.074c0.165 1.362 -0.055 2.691 -0.301 3.599 -1.989 7.359 -10.966 6.962 -12.261 6.962 -1.299 0 -1.6 1.368 -1.6 1.368l-0.969 4.792q-0.039 0.247 -0.106 0.444l-0.993 4.853s-0.183 1.311 0.987 1.311H10.77s1.347 0.087 1.611 -1.597l0.969 -4.792s0.301 -1.368 1.6 -1.368c1.296 0 10.272 0.398 12.261 -6.962 0.609 -2.252 1.062 -7.091 -4.12 -8.608"/><path style="fill:#4172C9;" d="M12.835 5.608h6.546c1.478 0 2.701 0.17 3.711 0.465 -0.323 -2.673 -2.127 -5.475 -8.132 -5.475H8.415S7.055 0.526 6.719 2.166L2.439 23.081s-0.183 1.311 0.987 1.311h2.922s1.097 0.069 1.504 -1.153L11.139 7.176c0.336 -1.639 1.696 -1.567 1.696 -1.567"/><path style="fill:#0535A8;" d="M8.93 18.002s0.301 -1.368 1.6 -1.368c1.296 0 10.272 0.398 12.261 -6.962 0.246 -0.907 0.467 -2.237 0.301 -3.599 -1.01 -0.295 -2.234 -0.465 -3.711 -0.465H12.835s-1.361 -0.072 -1.696 1.567z"/><g><path style="fill:#0C306E;" d="M27.9 9.945c-0.567 -2.082 -2.042 -3.571 -4.272 -4.327 -0.264 -1.548 -0.966 -2.806 -2.09 -3.743C20.047 0.631 17.834 0.002 14.96 0.002H8.427c-0.654 -0.027 -1.951 0.366 -2.295 2.046L1.854 22.962l-0.006 0.038c-0.013 0.091 -0.111 0.916 0.389 1.491 0.198 0.228 0.566 0.5 1.19 0.5h2.907l0.065 0.002c0.143 0 0.317 -0.021 0.501 -0.071l-0.622 3.05 -0.006 0.038c-0.013 0.091 -0.111 0.916 0.389 1.491 0.198 0.228 0.566 0.5 1.19 0.5h2.905l0.074 0.002c0.676 0 1.875 -0.426 2.142 -2.091l0.966 -4.774c0.017 -0.072 0.225 -0.895 1.016 -0.895l0.186 0.002c0.971 0.009 3.548 0.036 6.195 -0.856 1.521 -0.513 2.814 -1.249 3.846 -2.192 1.261 -1.152 2.141 -2.618 2.61 -4.356 0.268 -0.995 0.64 -2.95 0.111 -4.893m-5.686 -0.429c-1.153 4.271 -5.034 6.522 -11.228 6.522l-0.258 -0.002 -0.198 -0.002q-0.333 0.002 -0.61 0.083l1.804 -8.823c0.21 -1.026 0.906 -1.091 1.077 -1.091h6.582c1.181 0 2.238 0.114 3.155 0.338a9.45 9.45 0 0 1 -0.321 2.973M6.384 23.791l-0.035 -0.002H3.426c-0.21 0 -0.268 -0.066 -0.286 -0.087 -0.102 -0.115 -0.124 -0.381 -0.109 -0.529L7.302 2.286c0.21 -1.026 0.906 -1.091 1.077 -1.091h6.582c4.179 0 6.654 1.371 7.374 4.079a15 15 0 0 0 -2.952 -0.264H12.849c-0.654 -0.027 -1.951 0.366 -2.295 2.046L7.275 23.081c-0.244 0.685 -0.774 0.718 -0.892 0.716m3.131 -5.665c0.028 -0.114 0.249 -0.898 1.017 -0.898l0.186 0.002c0.971 0.009 3.548 0.036 6.195 -0.856 1.521 -0.513 2.814 -1.249 3.846 -2.192 1.261 -1.152 2.141 -2.618 2.61 -4.356a10.95 10.95 0 0 0 0.378 -2.892c3.986 1.679 3.37 5.809 2.889 7.588 -1.153 4.271 -5.034 6.522 -11.228 6.522l-0.258 -0.002 -0.198 -0.002c-1.407 0 -2.043 1.202 -2.184 1.838l-0.002 0.011 -0.969 4.792 -0.005 0.026c-0.165 1.048 -0.836 1.095 -0.987 1.093l-0.035 -0.002H7.848c-0.21 0 -0.268 -0.066 -0.286 -0.087 -0.102 -0.115 -0.124 -0.381 -0.109 -0.529z"/><path style="fill:#0C306E;" d="M6.552 12.319a0.6 0.6 0 0 0 -0.705 0.467l-0.057 0.279a0.597 0.597 0 1 0 1.171 0.238l0.057 -0.279a0.6 0.6 0 0 0 -0.467 -0.705"/><path style="fill:#0C306E;" d="M6.098 14.547a0.6 0.6 0 0 0 -0.705 0.467l-1.512 7.407a0.597 0.597 0 1 0 1.171 0.238l1.512 -7.407a0.6 0.6 0 0 0 -0.467 -0.705"/></g></svg>